<svg xmlns="http://www.w3.org/2000/svg" xmlns:xlink="http://www.w3.org/1999/xlink" version="1.1" x="0px" y="0px" viewBox="0 0 100 125" enable-background="new 0 0 100 100" xml:space="preserve">
  <defs>
    <linearGradient id="Gradient" x1="0" x2="0" y1="0" y2="1">
      <stop offset="0%" stop-color="yellow"/>
      <stop offset="100%" stop-color="orange"/>
    </linearGradient>
  </defs>
  <g>
  <path fill="url(#Gradient)" d="M86.894,49.109v-8.118h-7.962V17.11h-9.219v7.801H62.77v-8.044H54.58V8.749h-9.22v8.118h-8.118v8.044h-8.043v8.117h-8.118  v7.963h-7.963v8.118H5v9.22h8.118v23.7h-0.092v9.218l73.868,0.004V58.329H95v-9.22H86.894z"/>
  <path fill="black" d="M86.894,49.109v-8.118h-7.962V17.11h-9.219v7.801H62.77v-8.044H54.58V8.749h-9.22v8.118h-8.118v8.044h-8.043v8.117h-8.118  v7.963h-7.963v8.118H5v9.22h8.118v23.7h-0.092v9.218l73.868,0.004V58.329H95v-9.22H86.894z M53.546,67.018v15.012h-7.084V67.018  H53.546z M61.595,34.13v8.12h8.095v7.96h7.985v31.819h-14.91L62.77,57.8H37.242v24.229H22.336V50.21h7.987v-7.96h8.095v-8.12h8.047  v-8.044h7.081v8.044H61.595z"/>
  </g>
</svg>